# xmcd
#
# Track frame offsets: 
#        182
#        15575
#        25167
#        35050
#        52092
#        66097
#        75912
#        88062
#        98177
#        110535
#        122537
#        130697
#        140212
#        152762
#        165507
#        178065
#
# Disc length: 2520 seconds
#
# Revision: 5
# Processed by: cddbd v1.5.2PL0 Copyright (c) Steve Scherf et al.
# Submitted via: ExactAudioCopy v1.5
#
DISCID=d009d610
DTITLE=Ike and Tina Turner - The Queen of the Rhythm'n'Blues
DYEAR=1997
DGENRE=Blues
TTITLE0=Crazy 'Bout You Baby
TTITLE1=Too Hot to Hold
TTITLE2=Please Love Me
TTITLE3=I Smell Trouble
TTITLE4=It Sho' Ain't Me
TTITLE5=Beauty Is Just Skin Deep
TTITLE6=We Need Understanding
TTITLE7=Shake a Tail Feather
TTITLE8=Rock Me Baby
TTITLE9=So Fine
TTITLE10=My Babe
TTITLE11=Ain't Nobody's Business
TTITLE12=I Better Getta Steppin'
TTITLE13=Betcha Can't Kiss Me (Just One Time)
TTITLE14=A Fool in Love
TTITLE15=You're So Fine
EXTD=YEAR: 1997
EXTT0=
EXTT1=
EXTT2=
EXTT3=
EXTT4=
EXTT5=
EXTT6=
EXTT7=
EXTT8=
EXTT9=
EXTT10=
EXTT11=
EXTT12=
EXTT13=
EXTT14=
EXTT15=
PLAYORDER=
